0
SECTION
2
HEADER
9
$INSUNITS
70
1
9
$ACADVER
1
AC1014
9
$HANDSEED
5
FFFF
0
ENDSEC
0
SECTION
2
TABLES
0
TABLE
2
VPORT
5
8
100
AcDbSymbolTable
0
ENDTAB
0
TABLE
2
LTYPE
5
5
100
AcDbSymbolTable
0
LTYPE
5
14
100
AcDbSymbolTableRecord
100
AcDbLinetypeTableRecord
2
BYBLOCK
70
0
0
LTYPE
5
15
100
AcDbSymbolTableRecord
100
AcDbLinetypeTableRecord
2
BYLAYER
70
0
0
ENDTAB
0
TABLE
2
LAYER
5
2
100
AcDbSymbolTable
70
2
0
LAYER
5
50
100
AcDbSymbolTableRecord
100
AcDbLayerTableRecord
2
0
70
0
6
CONTINUOUS
0
ENDTAB
0
TABLE
2
STYLE
5
3
100
AcDbSymbolTable
70
1
0
STYLE
5
11
100
AcDbSymbolTableRecord
100
AcDbTextStyleTableRecord
2
STANDARD
70
0
0
ENDTAB
0
TABLE
2
VIEW
5
6
100
AcDbSymbolTable
70
0
0
ENDTAB
0
TABLE
2
UCS
5
7
100
AcDbSymbolTable
70
0
0
ENDTAB
0
TABLE
2
APPID
5
9
100
AcDbSymbolTable
70
2
0
APPID
5
12
100
AcDbSymbolTableRecord
100
AcDbRegAppTableRecord
2
ACAD
70
0
0
ENDTAB
0
TABLE
2
DIMSTYLE
5
A
100
AcDbSymbolTable
70
1
0
ENDTAB
0
TABLE
2
BLOCK_RECORD
5
1
100
AcDbSymbolTable
70
1
0
BLOCK_RECORD
5
1F
100
AcDbSymbolTableRecord
100
AcDbBlockTableRecord
2
*MODEL_SPACE
0
BLOCK_RECORD
5
1B
100
AcDbSymbolTableRecord
100
AcDbBlockTableRecord
2
*PAPER_SPACE
0
ENDTAB
0
ENDSEC
0
SECTION
2
BLOCKS
0
BLOCK
5
20
100
AcDbEntity
100
AcDbBlockBegin
2
*MODEL_SPACE
0
ENDBLK
5
21
100
AcDbEntity
100
AcDbBlockEnd
0
BLOCK
5
1C
100
AcDbEntity
100
AcDbBlockBegin
2
*PAPER_SPACE
0
ENDBLK
5
1D
100
AcDbEntity
100
AcDbBlockEnd
0
ENDSEC
0
SECTION
2
ENTITIES
0
LINE
5
100
100
AcDbEntity
8
0
100
AcDbLine
10
7.9999999999999982
20
11.200000000000001
30
0
11
6.9999999999999973
21
11.200000000000005
31
0
0
LINE
5
101
100
AcDbEntity
8
0
100
AcDbLine
10
6.9999999999999973
20
11.25
30
0
11
7.9999999999999982
21
11.250000000000002
31
0
0
LWPOLYLINE
5
102
100
AcDbEntity
8
0
100
AcDbPolyline
90
4
70
1
43
0.0
10
6.9999999999999982
20
11.450000000000001
10
7.9999999999999982
20
11.450000000000001
42
0.99999999999999989
10
7.9999999999999982
20
11.500000000000004
10
6.9999999999999982
20
11.500000000000004
42
0.99999999999999989
0
LWPOLYLINE
5
103
100
AcDbEntity
8
0
100
AcDbPolyline
90
4
70
1
43
0.0
10
7
20
11.690000000000001
10
7.9999999999999991
20
11.690000000000001
42
0.99999999999999989
10
7.9999999999999982
20
11.750000000000002
10
6.9999999999999982
20
11.750000000000002
42
0.99999999999999989
0
LWPOLYLINE
5
104
100
AcDbEntity
8
0
100
AcDbPolyline
90
8
70
1
43
0.0
10
8.2499999999999964
20
-2.4208376066932535e-16
10
1.5
20
0
42
-0.4142135623730952
10
0
20
1.4999999999999993
10
-3.4967654318902565e-16
20
10.499999999999996
42
-0.41421356237309426
10
1.4999999999999993
20
11.999999999999998
10
8.2499999999999964
20
11.999999999999998
42
-0.41421356237309509
10
8.4999999999999982
20
11.749999999999996
10
8.4999999999999982
20
0.24999999999999972
42
-0.41421356237309509
0
ARC
5
105
100
AcDbEntity
8
0
100
AcDbCircle
10
7.9999999999999982
20
11.225000000000001
30
0
40
0.02500000000000048
210
0
220
0
230
1
100
AcDbArc
50
-90
51
90
0
ARC
5
106
100
AcDbEntity
8
0
100
AcDbCircle
10
6.9999999999999973
20
11.225000000000003
30
0
40
0.02499999999999768
210
0
220
-0
230
1
100
AcDbArc
50
90
51
270
0
ARC
5
107
100
AcDbEntity
8
0
100
AcDbCircle
10
7.9999999999999991
20
0.77499999999999669
30
0
40
0.02500000000000048
210
0
220
0
230
1
100
AcDbArc
50
-90
51
90
0
LWPOLYLINE
5
108
100
AcDbEntity
8
0
100
AcDbPolyline
90
4
70
1
43
0.0
10
7
20
0.49999999999999278
42
-0.99999999999999989
10
7
20
0.5499999999999966
10
7.9999999999999991
20
0.54999999999999516
42
-0.99999999999999989
10
7.9999999999999991
20
0.49999999999999417
0
ARC
5
109
100
AcDbEntity
8
0
100
AcDbCircle
10
6.9999999999999982
20
0.77499999999999525
30
0
40
0.02499999999999768
210
0
220
-0
230
1
100
AcDbArc
50
90
51
270
0
LWPOLYLINE
5
110
100
AcDbEntity
8
0
100
AcDbPolyline
90
4
70
1
43
0.0
10
7.0000000000000009
20
0.30999999999999645
10
7.9999999999999991
20
0.30999999999999645
42
-0.99999999999999989
10
7.9999999999999991
20
0.24999999999999639
10
6.9999999999999982
20
0.24999999999999639
42
-0.99999999999999989
0
LINE
5
111
100
AcDbEntity
8
0
100
AcDbLine
10
7.9999999999999991
20
0.79999999999999716
30
0
11
6.9999999999999982
21
0.79999999999999294
31
0
0
LINE
5
112
100
AcDbEntity
8
0
100
AcDbLine
10
6.9999999999999982
20
0.74999999999999756
30
0
11
7.9999999999999991
21
0.74999999999999623
31
0
0
LWPOLYLINE
5
113
100
AcDbEntity
8
0
100
AcDbPolyline
90
4
70
1
43
0.0
10
8.5999999999999979
20
10
10
9.5999999999999979
20
9.9999999999999982
10
9.5999999999999979
20
1.9999999999999998
10
8.5999999999999979
20
2.0000000000000004
0
ENDSEC
0
SECTION
2
OBJECTS
0
DICTIONARY
5
C
100
AcDbDictionary
3
ACAD_GROUP
350
D
3
ACAD_MLINESTYLE
350
17
0
DICTIONARY
5
D
100
AcDbDictionary
0
DICTIONARY
5
1A
330
C
100
AcDbDictionary
0
DICTIONARY
5
17
100
AcDbDictionary
0
ENDSEC
0
EOF
